<?xml version="1.0" standalone="no"?>
<!DOCTYPE svg PUBLIC "-//W3C//DTD SVG 20010904//EN"
 "http://www.w3.org/TR/2001/REC-SVG-20010904/DTD/svg10.dtd">
<svg version="1.0" xmlns="http://www.w3.org/2000/svg"
 width="762.000000pt" height="762.000000pt" viewBox="0 0 762.000000 762.000000"
 preserveAspectRatio="xMidYMid meet">
<metadata>
Created by potrace 1.14, written by Peter Selinger 2001-2017
</metadata>
<g transform="translate(0.000000,762.000000) scale(0.100000,-0.100000)"
fill="#000000" stroke="none">
<path d="M4100 7438 c-14 -6 -31 -12 -38 -14 -21 -4 -77 -67 -97 -109 -19 -38
-20 -67 -21 -745 l-1 -705 -92 -2 c-51 -1 -99 -4 -107 -7 -8 -3 -14 -2 -14 2
0 4 -27 7 -60 7 -33 0 -60 -3 -60 -7 0 -4 -10 -4 -22 1 -12 4 -39 5 -59 1 -21
-4 -41 -5 -44 -2 -7 7 -144 6 -193 -3 -29 -5 -49 -16 -68 -38 l-26 -31 5 -340
c4 -328 6 -345 31 -446 15 -58 28 -114 31 -125 11 -57 93 -245 148 -340 26
-45 79 -127 87 -135 3 -3 17 -21 30 -40 13 -19 27 -37 30 -40 3 -3 17 -21 30
-40 14 -19 28 -39 32 -45 5 -5 28 -37 53 -70 24 -33 48 -64 53 -70 4 -5 21
-28 37 -50 17 -22 33 -44 38 -50 4 -5 21 -28 37 -50 16 -22 33 -44 38 -50 4
-5 25 -35 47 -65 22 -30 42 -57 45 -60 3 -3 23 -30 45 -60 44 -60 46 -64 75
-99 11 -13 20 -27 20 -30 0 -3 11 -18 24 -32 27 -29 139 -214 136 -225 -1 -4
2 -10 7 -13 7 -5 36 -69 69 -156 10 -27 10 -26 18 -60 4 -16 10 -37 14 -45 3
-8 7 -22 8 -30 1 -8 5 -26 9 -40 24 -97 33 -208 34 -440 1 -117 4 -216 7 -219
3 -3 88 -6 190 -7 101 0 187 -4 190 -7 4 -4 7 -93 8 -199 l1 -193 190 -3 c105
-1 195 -4 200 -6 8 -3 10 -103 9 -307 -2 -311 -8 -421 -25 -467 -6 -15 -10
-29 -10 -32 2 -11 -23 -78 -45 -122 -14 -27 -24 -50 -24 -53 0 -3 -7 -13 -16
-22 -35 -39 -64 -78 -64 -86 0 -5 -4 -6 -9 -2 -5 3 -12 -4 -16 -15 -3 -11 -10
-20 -14 -20 -4 0 -21 -11 -37 -25 -34 -31 -133 -92 -154 -97 -8 -2 -17 -6 -21
-10 -5 -8 -138 -57 -169 -63 -8 -2 -45 -10 -82 -19 -102 -24 -205 -31 -428
-30 -208 0 -319 11 -470 45 -25 6 -54 12 -65 15 -36 7 -160 46 -225 70 -145
55 -414 201 -480 261 -14 13 -28 23 -32 23 -13 0 -188 150 -188 161 0 6 -4 8
-8 5 -5 -3 -15 6 -23 21 -13 25 -12 27 36 67 165 136 294 311 419 572 24 50
51 115 60 145 10 30 22 63 27 74 30 67 47 341 25 435 -7 32 -15 69 -20 95 -18
90 -166 425 -188 425 -4 0 -8 5 -8 11 0 12 -60 103 -72 107 -4 2 -6 7 -3 12 2
4 -4 15 -15 25 -11 10 -20 22 -20 27 0 5 -6 15 -12 22 -7 7 -24 27 -38 45 -14
18 -31 39 -38 47 -7 8 -10 14 -6 14 4 0 -7 14 -25 30 -17 17 -31 33 -31 37 0
3 -7 13 -15 22 -58 60 -103 111 -99 111 3 0 -33 39 -80 87 -48 48 -86 89 -86
91 0 2 -30 36 -67 75 -38 39 -84 88 -104 109 -20 20 -34 40 -32 42 3 3 -4 11
-16 18 -12 7 -21 18 -21 25 0 7 -9 18 -20 25 -11 7 -20 16 -20 20 0 7 -85 125
-100 138 -7 7 -28 41 -37 60 -4 8 -11 20 -15 25 -16 20 -54 81 -78 125 -13 25
-30 52 -38 62 -7 9 -15 22 -16 30 -1 7 -17 42 -36 78 -19 36 -35 74 -37 84 -2
11 -7 24 -12 30 -11 14 -81 216 -75 216 3 0 0 8 -5 18 -10 18 -14 35 -26 100
-6 32 -13 67 -20 102 -18 86 -24 356 -11 455 4 28 14 76 21 107 17 69 12 98
-14 71 -9 -10 -38 -34 -64 -53 -27 -19 -63 -48 -82 -65 -18 -16 -48 -41 -65
-55 -17 -14 -49 -42 -71 -62 -21 -21 -39 -37 -39 -35 0 2 -45 -40 -100 -93
-55 -53 -102 -94 -105 -92 -3 3 -5 0 -5 -6 0 -9 -53 -70 -161 -184 -20 -21
-35 -38 -33 -38 5 0 -37 -48 -78 -92 -15 -15 -25 -28 -22 -28 2 0 -25 -36 -61
-80 -36 -43 -65 -84 -65 -89 0 -5 -4 -11 -8 -13 -10 -4 -119 -163 -176 -258
-22 -36 -43 -66 -48 -68 -4 -2 -8 -12 -8 -23 0 -10 -4 -19 -10 -19 -5 0 -10
-5 -10 -10 0 -6 -12 -29 -27 -53 -14 -23 -26 -43 -25 -45 1 -1 -9 -25 -23 -52
-14 -27 -25 -53 -24 -56 0 -4 -4 -10 -11 -14 -6 -4 -13 -13 -15 -21 -8 -35
-18 -59 -24 -59 -4 0 -8 -6 -8 -12 0 -7 -11 -35 -23 -63 -13 -27 -24 -53 -24
-57 -1 -3 -4 -10 -8 -14 -5 -4 -8 -13 -8 -20 0 -7 -5 -25 -12 -41 -6 -15 -12
-30 -13 -33 -1 -3 -18 -58 -39 -122 -91 -287 -129 -538 -129 -855 0 -158 6
-218 35 -343 5 -25 12 -56 14 -70 3 -14 10 -43 16 -65 5 -22 11 -47 13 -55 2
-8 15 -55 30 -105 15 -49 29 -100 32 -113 3 -12 9 -22 14 -22 5 0 9 -5 9 -12
0 -13 78 -169 89 -178 3 -3 15 -23 26 -45 10 -22 32 -59 47 -83 15 -24 28 -45
28 -47 0 -3 20 -34 45 -71 25 -36 45 -69 45 -74 0 -4 3 -10 8 -12 4 -2 33 -37
64 -78 32 -41 73 -93 93 -115 19 -22 35 -44 35 -49 0 -5 2 -7 5 -4 3 3 29 -18
58 -46 53 -52 96 -89 137 -116 12 -8 28 -19 34 -25 34 -29 220 -122 234 -117
7 2 12 -2 12 -8 0 -6 6 -10 13 -7 6 2 21 0 31 -6 23 -11 118 -36 161 -42 60
-8 111 -15 148 -21 40 -6 302 -6 352 0 95 13 124 18 179 32 60 15 131 38 171
55 107 45 103 45 155 -16 34 -41 179 -182 214 -208 16 -12 37 -30 47 -39 11
-10 19 -16 19 -13 0 3 12 -6 27 -20 15 -14 31 -25 35 -25 3 0 13 -6 20 -13 20
-20 163 -107 176 -107 5 0 12 -4 14 -8 3 -10 160 -87 253 -125 89 -37 197 -73
310 -103 71 -19 202 -45 295 -58 226 -31 575 -27 770 9 19 3 46 8 60 10 14 3
43 9 65 15 22 6 47 13 55 15 8 2 15 4 15 5 0 1 7 3 15 5 8 2 24 6 35 9 45 11
184 73 260 115 63 35 93 56 174 125 49 41 55 48 111 116 19 23 43 51 53 61 9
11 17 26 17 34 0 8 4 15 9 15 7 0 60 101 92 175 17 39 49 149 53 181 3 18 7
37 10 42 12 20 20 207 20 485 0 163 3 297 6 298 3 0 89 1 192 2 102 1 189 5
193 8 3 4 6 89 7 190 0 101 3 189 5 194 2 7 73 10 193 10 148 -1 190 2 194 12
3 7 6 113 7 235 1 304 20 423 96 627 44 119 123 272 144 279 5 2 9 9 9 16 0 6
7 21 15 31 8 11 35 47 60 80 25 33 56 74 69 90 13 17 24 33 25 38 1 4 9 15 19
25 31 34 52 62 52 71 0 5 3 11 8 13 10 4 102 126 102 136 0 4 9 14 20 22 11 8
20 20 20 27 0 7 5 13 10 13 6 0 10 4 10 10 0 9 25 42 58 76 7 7 11 15 10 16
-3 3 47 70 74 99 9 9 14 20 11 23 -4 3 -1 6 5 6 7 0 12 7 12 15 0 8 4 15 8 15
5 0 26 25 47 55 20 30 42 55 47 55 5 0 6 4 3 10 -3 6 -1 10 5 10 6 0 9 4 6 9
-3 5 1 11 9 15 8 3 15 10 15 16 0 6 13 30 28 53 50 74 145 284 156 342 1 6 5
15 8 21 4 6 9 21 12 35 3 13 7 35 10 49 36 168 40 208 41 520 2 315 -1 336
-48 361 -29 16 -56 19 -147 18 -41 0 -81 0 -87 0 -7 1 -21 1 -30 1 -23 0 -66
1 -121 3 -23 1 -42 0 -42 -3 0 -4 -165 -4 -180 0 -3 1 -23 2 -45 3 l-40 2 -5
715 c-5 654 -6 718 -22 745 -24 42 -54 75 -67 75 -7 0 -14 7 -17 15 -4 8 -17
15 -29 15 -13 0 -27 5 -31 11 -9 15 -122 8 -159 -10 -16 -8 -39 -23 -49 -33
-11 -10 -24 -18 -28 -18 -5 0 -6 -4 -3 -10 3 -5 2 -10 -4 -10 -14 0 -40 -58
-46 -101 -7 -50 -7 -177 0 -189 3 -6 2 -10 -3 -10 -5 0 -6 -17 -2 -40 4 -22 4
-40 0 -40 -4 0 -4 -15 0 -34 4 -18 3 -40 -1 -49 -6 -10 -5 -18 1 -22 6 -4 8
-10 6 -14 -3 -4 -5 -23 -6 -42 -1 -88 -1 -145 0 -159 0 -8 0 -28 -1 -45 -1
-16 -1 -37 0 -45 2 -76 1 -132 -4 -140 -3 -6 -3 -10 2 -10 8 0 7 -95 -1 -117
-3 -7 -2 -13 2 -13 4 0 7 -27 7 -60 0 -33 -4 -60 -8 -60 -5 0 -5 -5 -2 -10 9
-15 10 -114 1 -128 -4 -7 -4 -12 1 -12 9 0 9 -131 0 -147 -4 -6 -16 -13 -27
-16 -13 -3 -18 -1 -13 5 4 7 1 8 -6 3 -7 -4 -110 -7 -229 -7 -238 1 -419 1
-442 0 -15 0 -84 1 -175 2 -27 1 -65 1 -82 0 -46 0 -58 0 -137 -1 -38 0 -73
-2 -78 -5 -4 -3 -8 -2 -8 3 0 8 -93 8 -115 -1 -7 -2 -16 -2 -19 1 -7 7 -206
10 -206 3 0 -3 -33 -4 -72 -3 -104 4 -181 5 -193 3 -5 -1 -14 -2 -19 -1 -5 1
-42 2 -82 2 -41 0 -76 5 -80 10 -3 5 -5 319 -5 697 1 630 0 691 -16 728 -9 21
-17 42 -17 47 -1 13 -90 86 -116 95 -38 13 -132 13 -160 0z m1616 -2170 c-12
-66 -15 -80 -20 -96 -3 -9 -8 -32 -11 -51 -3 -19 -8 -38 -11 -43 -3 -4 -7 -16
-9 -26 -1 -9 -14 -56 -28 -102 -14 -47 -34 -125 -46 -175 -11 -49 -32 -136
-45 -193 -14 -57 -23 -109 -20 -116 3 -9 60 -12 242 -11 252 2 276 0 264 -20
-10 -18 -52 -71 -89 -113 -18 -20 -33 -41 -33 -45 0 -4 -10 -18 -23 -30 -12
-12 -96 -114 -187 -227 -90 -113 -168 -207 -172 -208 -4 -2 -8 -8 -8 -13 0 -5
-8 -17 -17 -27 -10 -11 -29 -33 -43 -51 -14 -17 -32 -40 -40 -49 -9 -9 -33
-39 -55 -67 -22 -27 -43 -51 -47 -53 -5 -2 -8 -8 -8 -13 0 -6 -11 -20 -25 -33
-14 -13 -25 -27 -25 -32 0 -5 -8 -17 -17 -25 -23 -20 -52 -56 -50 -61 1 -1
-20 -25 -46 -53 l-49 -50 6 38 c3 21 18 84 32 140 14 56 30 120 36 142 5 22
11 47 14 55 11 42 35 137 39 153 2 10 7 27 10 37 3 10 7 27 9 37 2 10 9 38 16
63 7 25 14 53 16 63 2 10 5 26 8 35 3 9 8 34 11 54 l6 38 -243 -1 c-309 -1
-281 -2 -269 19 5 9 21 29 36 45 14 15 23 27 18 27 -4 0 0 6 8 13 13 10 117
136 154 185 6 7 18 21 28 30 9 9 17 20 17 23 0 4 20 29 45 56 25 26 45 52 45
57 0 5 8 16 18 25 9 9 46 52 82 96 36 44 77 94 92 110 70 79 242 295 234 295
-3 0 5 11 17 24 12 13 47 53 77 89 30 36 57 66 59 66 2 1 0 -14 -3 -31z
m-4687 -1665 c6 -27 13 -55 15 -64 6 -23 17 -89 21 -119 2 -14 4 -25 5 -25 2
0 9 -32 26 -125 3 -19 10 -43 15 -52 5 -10 7 -18 4 -18 -3 0 -1 -8 4 -19 6
-10 13 -31 15 -47 39 -217 232 -622 418 -878 28 -39 51 -76 51 -83 0 -6 3 -11
7 -10 4 1 33 -32 65 -73 32 -41 98 -121 146 -176 49 -56 85 -105 81 -109 -4
-3 -2 -5 3 -3 6 1 76 -64 155 -146 80 -82 156 -159 170 -170 13 -12 58 -53
100 -92 123 -116 203 -191 229 -211 l24 -20 -135 -91 -135 -90 -118 100 c-204
175 -431 412 -591 618 -76 98 -166 230 -157 230 4 0 3 4 -3 8 -18 11 -84 125
-78 134 3 4 0 8 -5 8 -14 0 -116 204 -168 335 -33 81 -80 223 -109 328 -11 36
-65 303 -69 332 -14 134 -17 188 -17 315 1 80 3 154 6 165 2 11 5 37 5 58 1
20 3 37 5 37 2 0 9 -21 15 -47z"/>
</g>
</svg>
